<?plantuml 1.2026.2?><svg xmlns="http://www.w3.org/2000/svg" xmlns:xlink="http://www.w3.org/1999/xlink" contentStyleType="text/css" data-diagram-type="DESCRIPTION" height="128px" preserveAspectRatio="none" style="width:1491px;height:128px;background:#FFFFFF;" version="1.1" viewBox="0 0 1491 128" width="1491px" zoomAndPan="magnify"><defs/><g><!--entity v1--><g class="entity" data-qualified-name="v1" data-source-line="3" id="ent0002"><rect fill="#F1F1F1" height="40.2719" rx="2.5" ry="2.5" style="stroke:#181818;stroke-width:0.5;" width="75.9998" x="7" y="7"/><text fill="#000000" font-family="sans-serif" font-size="14" lengthAdjust="spacing" textLength="55.9998" x="17" y="33.2399">&#35270;&#39057;&#36755;&#20837;</text></g><!--entity v2--><g class="entity" data-qualified-name="v2" data-source-line="4" id="ent0003"><rect fill="#F1F1F1" height="40.2719" rx="2.5" ry="2.5" style="stroke:#181818;stroke-width:0.5;" width="74.5158" x="143" y="7"/><text fill="#000000" font-family="sans-serif" font-size="14" lengthAdjust="spacing" textLength="54.5158" x="153" y="33.2399">ROI &#36873;&#21462;</text></g><!--entity v3--><g class="entity" data-qualified-name="v3" data-source-line="5" id="ent0004"><rect fill="#F1F1F1" height="40.2719" rx="2.5" ry="2.5" style="stroke:#181818;stroke-width:0.5;" width="152.8035" x="277.52" y="7"/><text fill="#000000" font-family="sans-serif" font-size="14" lengthAdjust="spacing" textLength="132.8035" x="287.52" y="33.2399">Shi-Tomasi &#35282;&#28857;&#25552;&#21462;</text></g><!--entity v4--><g class="entity" data-qualified-name="v4" data-source-line="6" id="ent0005"><rect fill="#F1F1F1" height="40.2719" rx="2.5" ry="2.5" style="stroke:#181818;stroke-width:0.5;" width="157.2694" x="490.32" y="7"/><text fill="#000000" font-family="sans-serif" font-size="14" lengthAdjust="spacing" textLength="137.2694" x="500.32" y="33.2399">LK &#20809;&#27969;&#36319;&#36394;/&#20301;&#31227;&#37325;&#24314;</text></g><!--entity v5--><g class="entity" data-qualified-name="v5" data-source-line="7" id="ent0006"><rect fill="#F1F1F1" height="40.2719" rx="2.5" ry="2.5" style="stroke:#181818;stroke-width:0.5;" width="121.9336" x="707.59" y="7"/><text fill="#000000" font-family="sans-serif" font-size="14" lengthAdjust="spacing" textLength="101.9336" x="717.59" y="33.2399">&#28369;&#31383; Welch &#29305;&#24449;</text></g><!--entity v6--><g class="entity" data-qualified-name="v6" data-source-line="8" id="ent0007"><rect fill="#F1F1F1" height="40.2719" rx="2.5" ry="2.5" style="stroke:#181818;stroke-width:0.5;" width="89.9997" x="896.52" y="7"/><text fill="#000000" font-family="sans-serif" font-size="14" lengthAdjust="spacing" textLength="69.9997" x="906.52" y="33.2399">&#35270;&#35273;&#29305;&#24449;&#34920;</text></g><!--entity s1--><g class="entity" data-qualified-name="s1" data-source-line="10" id="ent0008"><rect fill="#F1F1F1" height="40.2719" rx="2.5" ry="2.5" style="stroke:#181818;stroke-width:0.5;" width="89.9997" x="308.92" y="82"/><text fill="#000000" font-family="sans-serif" font-size="14" lengthAdjust="spacing" textLength="69.9997" x="318.92" y="108.2399">&#20256;&#24863;&#22120;&#36755;&#20837;</text></g><!--entity s2--><g class="entity" data-qualified-name="s2" data-source-line="11" id="ent0009"><rect fill="#F1F1F1" height="40.2719" rx="2.5" ry="2.5" style="stroke:#181818;stroke-width:0.5;" width="128.9755" x="504.47" y="82"/><text fill="#000000" font-family="sans-serif" font-size="14" lengthAdjust="spacing" textLength="108.9755" x="514.47" y="108.2399">&#28388;&#27874;/&#21435;&#30452;&#27969;/&#20998;&#31383;</text></g><!--entity s3--><g class="entity" data-qualified-name="s3" data-source-line="12" id="ent0010"><rect fill="#F1F1F1" height="40.2719" rx="2.5" ry="2.5" style="stroke:#181818;stroke-width:0.5;" width="109.4876" x="713.81" y="82"/><text fill="#000000" font-family="sans-serif" font-size="14" lengthAdjust="spacing" textLength="89.4876" x="723.81" y="108.2399">&#26102;&#22495;/&#39057;&#22495;&#32479;&#35745;</text></g><!--entity s4--><g class="entity" data-qualified-name="s4" data-source-line="13" id="ent0011"><rect fill="#F1F1F1" height="40.2719" rx="2.5" ry="2.5" style="stroke:#181818;stroke-width:0.5;" width="103.9996" x="889.52" y="82"/><text fill="#000000" font-family="sans-serif" font-size="14" lengthAdjust="spacing" textLength="83.9996" x="899.52" y="108.2399">&#20256;&#24863;&#22120;&#29305;&#24449;&#34920;</text></g><!--entity f1--><g class="entity" data-qualified-name="f1" data-source-line="15" id="ent0012"><rect fill="#F1F1F1" height="40.2719" rx="2.5" ry="2.5" style="stroke:#181818;stroke-width:0.5;" width="103.9996" x="1053.52" y="45"/><text fill="#000000" font-family="sans-serif" font-size="14" lengthAdjust="spacing" textLength="83.9996" x="1063.52" y="71.2399">&#32479;&#19968;&#31383;&#21475;&#23545;&#40784;</text></g><!--entity f2--><g class="entity" data-qualified-name="f2" data-source-line="16" id="ent0013"><rect fill="#F1F1F1" height="40.2719" rx="2.5" ry="2.5" style="stroke:#181818;stroke-width:0.5;" width="89.9997" x="1217.52" y="45"/><text fill="#000000" font-family="sans-serif" font-size="14" lengthAdjust="spacing" textLength="69.9997" x="1227.52" y="71.2399">&#34701;&#21512;&#29305;&#24449;&#34920;</text></g><!--entity f3--><g class="entity" data-qualified-name="f3" data-source-line="17" id="ent0014"><rect fill="#F1F1F1" height="40.2719" rx="2.5" ry="2.5" style="stroke:#181818;stroke-width:0.5;" width="117.9996" x="1367.52" y="45"/><text fill="#000000" font-family="sans-serif" font-size="14" lengthAdjust="spacing" textLength="97.9996" x="1377.52" y="71.2399">&#20998;&#31867;&#19982;&#22686;&#37327;&#26356;&#26032;</text></g><!--link v1 to v2--><g class="link" data-entity-1="ent0002" data-entity-2="ent0003" data-link-type="dependency" data-source-line="19" id="lnk15"><path d="M83.47,27.13 C101.95,27.13 118.15,27.13 136.52,27.13" fill="none" id="v1-to-v2" style="stroke:#181818;stroke-width:1;"/><polygon fill="#181818" points="142.52,27.13,133.52,23.13,137.52,27.13,133.52,31.13,142.52,27.13" style="stroke:#181818;stroke-width:1;"/></g><!--link v2 to v3--><g class="link" data-entity-1="ent0003" data-entity-2="ent0004" data-link-type="dependency" data-source-line="20" id="lnk16"><path d="M217.66,27.13 C235.08,27.13 250.62,27.13 271.35,27.13" fill="none" id="v2-to-v3" style="stroke:#181818;stroke-width:1;"/><polygon fill="#181818" points="277.35,27.13,268.35,23.13,272.35,27.13,268.35,31.13,277.35,27.13" style="stroke:#181818;stroke-width:1;"/></g><!--link v3 to v4--><g class="link" data-entity-1="ent0004" data-entity-2="ent0005" data-link-type="dependency" data-source-line="21" id="lnk17"><path d="M430.63,27.13 C449.88,27.13 464.61,27.13 483.97,27.13" fill="none" id="v3-to-v4" style="stroke:#181818;stroke-width:1;"/><polygon fill="#181818" points="489.97,27.13,480.97,23.13,484.97,27.13,480.97,31.13,489.97,27.13" style="stroke:#181818;stroke-width:1;"/></g><!--link v4 to v5--><g class="link" data-entity-1="ent0005" data-entity-2="ent0006" data-link-type="dependency" data-source-line="22" id="lnk18"><path d="M648.05,27.13 C667.79,27.13 682.69,27.13 701.39,27.13" fill="none" id="v4-to-v5" style="stroke:#181818;stroke-width:1;"/><polygon fill="#181818" points="707.39,27.13,698.39,23.13,702.39,27.13,698.39,31.13,707.39,27.13" style="stroke:#181818;stroke-width:1;"/></g><!--link v5 to v6--><g class="link" data-entity-1="ent0006" data-entity-2="ent0007" data-link-type="dependency" data-source-line="23" id="lnk19"><path d="M829.83,27.13 C851.65,27.13 869.88,27.13 890.1,27.13" fill="none" id="v5-to-v6" style="stroke:#181818;stroke-width:1;"/><polygon fill="#181818" points="896.1,27.13,887.1,23.13,891.1,27.13,887.1,31.13,896.1,27.13" style="stroke:#181818;stroke-width:1;"/></g><!--link s1 to s2--><g class="link" data-entity-1="ent0008" data-entity-2="ent0009" data-link-type="dependency" data-source-line="24" id="lnk20"><path d="M399.32,102.13 C429.68,102.13 464.4,102.13 498.21,102.13" fill="none" id="s1-to-s2" style="stroke:#181818;stroke-width:1;"/><polygon fill="#181818" points="504.21,102.13,495.21,98.13,499.21,102.13,495.21,106.13,504.21,102.13" style="stroke:#181818;stroke-width:1;"/></g><!--link s2 to s3--><g class="link" data-entity-1="ent0009" data-entity-2="ent0010" data-link-type="dependency" data-source-line="25" id="lnk21"><path d="M633.84,102.13 C659.55,102.13 682.87,102.13 707.5,102.13" fill="none" id="s2-to-s3" style="stroke:#181818;stroke-width:1;"/><polygon fill="#181818" points="713.5,102.13,704.5,98.13,708.5,102.13,704.5,106.13,713.5,102.13" style="stroke:#181818;stroke-width:1;"/></g><!--link s3 to s4--><g class="link" data-entity-1="ent0010" data-entity-2="ent0011" data-link-type="dependency" data-source-line="26" id="lnk22"><path d="M823.65,102.13 C844.59,102.13 862.44,102.13 883.11,102.13" fill="none" id="s3-to-s4" style="stroke:#181818;stroke-width:1;"/><polygon fill="#181818" points="889.11,102.13,880.11,98.13,884.11,102.13,880.11,106.13,889.11,102.13" style="stroke:#181818;stroke-width:1;"/></g><!--link v6 to f1--><g class="link" data-entity-1="ent0007" data-entity-2="ent0012" data-link-type="dependency" data-source-line="27" id="lnk23"><path d="M986.79,37.52 C1007.31,42.33 1025.9683,46.7106 1047.2983,51.7106" fill="none" id="v6-to-f1" style="stroke:#181818;stroke-width:1;"/><polygon fill="#181818" points="1053.14,53.08,1045.2904,47.1315,1048.272,51.9389,1043.4646,54.9204,1053.14,53.08" style="stroke:#181818;stroke-width:1;"/></g><!--link s4 to f1--><g class="link" data-entity-1="ent0011" data-entity-2="ent0012" data-link-type="dependency" data-source-line="28" id="lnk24"><path d="M993.78,90.43 C1012.69,86.11 1028.2611,82.5579 1047.1911,78.2279" fill="none" id="s4-to-f1" style="stroke:#181818;stroke-width:1;"/><polygon fill="#181818" points="1053.04,76.89,1043.3747,74.9975,1048.1659,78.0049,1045.1585,82.7961,1053.04,76.89" style="stroke:#181818;stroke-width:1;"/></g><!--link f1 to f2--><g class="link" data-entity-1="ent0012" data-entity-2="ent0013" data-link-type="dependency" data-source-line="29" id="lnk25"><path d="M1157.7,65.13 C1176.93,65.13 1192.6,65.13 1211.15,65.13" fill="none" id="f1-to-f2" style="stroke:#181818;stroke-width:1;"/><polygon fill="#181818" points="1217.15,65.13,1208.15,61.13,1212.15,65.13,1208.15,69.13,1217.15,65.13" style="stroke:#181818;stroke-width:1;"/></g><!--link f2 to f3--><g class="link" data-entity-1="ent0013" data-entity-2="ent0014" data-link-type="dependency" data-source-line="30" id="lnk26"><path d="M1307.79,65.13 C1326.15,65.13 1341.71,65.13 1361.32,65.13" fill="none" id="f2-to-f3" style="stroke:#181818;stroke-width:1;"/><polygon fill="#181818" points="1367.32,65.13,1358.32,61.13,1362.32,65.13,1358.32,69.13,1367.32,65.13" style="stroke:#181818;stroke-width:1;"/></g><?plantuml-src RP5BJy9058Ntyoicx0c15fOcBeqc9ahYke4M6ainJ6rSWf7NWfSc46DY1JKbB7p45rZXrp3jz5yuSADfZPlEIUvtUi-PqMJ5m4OHbzHSti1PjIHd3BMe8tAewaTIIIhWhAn8nvgHba-CJKtDwGLPDt26V-GIMj6IdjDa765spH_rsEA2LkyZM2BOZ0V7UxjRs2ytQQSFmqHmk9zNe-bYGI8gPlQvTpfpEzrVKWYIEzkOLflkMuLzM6mwYItdBSzs_7gBEf-0Yq7STNhUP80FP2sJnrvpHXSLe99_eZEx2MCs70EHGa5a-NNZdbdqSXmeIEBXLNVkooX6suvtzSe3ncYZndS36Mhh3jwfPSNuRV73SopsC0HA-7TZE1SHGxcuVJajypsqSqiVP_wykwQKK3HstQBTHlW_IYZIAkkpivoswUZQhtTStg3_19o0a1d7qUZ6witC12W1cG8e4PaYg2Goaw1IY823zoRWuDq8E7W1CxLMF2GHVvG23XvB0OSYV0C0?></g></svg>