<?plantuml 1.2026.2?><svg xmlns="http://www.w3.org/2000/svg" xmlns:xlink="http://www.w3.org/1999/xlink" contentStyleType="text/css" data-diagram-type="DESCRIPTION" height="128px" preserveAspectRatio="none" style="width:1527px;height:128px;background:#FFFFFF;" version="1.1" viewBox="0 0 1527 128" width="1527px" zoomAndPan="magnify"><defs/><g><!--entity sensor--><g class="entity" data-qualified-name="sensor" data-source-line="3" id="ent0002"><rect fill="#F1F1F1" height="40.2719" rx="2.5" ry="2.5" style="stroke:#181818;stroke-width:0.5;" width="89.9997" x="197.52" y="7"/><text fill="#000000" font-family="sans-serif" font-size="14" lengthAdjust="spacing" textLength="69.9997" x="207.52" y="33.2399">&#20256;&#24863;&#22120;&#26102;&#24207;</text></g><!--entity vision--><g class="entity" data-qualified-name="vision" data-source-line="4" id="ent0003"><rect fill="#F1F1F1" height="40.2719" rx="2.5" ry="2.5" style="stroke:#181818;stroke-width:0.5;" width="102.5157" x="7" y="82"/><text fill="#000000" font-family="sans-serif" font-size="14" lengthAdjust="spacing" textLength="82.5157" x="17" y="108.2399">&#35270;&#35273;&#35270;&#39057; ROI</text></g><!--entity track--><g class="entity" data-qualified-name="track" data-source-line="5" id="ent0004"><rect fill="#F1F1F1" height="40.2719" rx="2.5" ry="2.5" style="stroke:#181818;stroke-width:0.5;" width="145.9995" x="169.52" y="82"/><text fill="#000000" font-family="sans-serif" font-size="14" lengthAdjust="spacing" textLength="125.9995" x="179.52" y="108.2399">&#35282;&#28857;&#36319;&#36394;&#19982;&#20301;&#31227;&#37325;&#24314;</text></g><!--entity feat--><g class="entity" data-qualified-name="feat" data-source-line="6" id="ent0005"><rect fill="#F1F1F1" height="40.2719" rx="2.5" ry="2.5" style="stroke:#181818;stroke-width:0.5;" width="149.9334" x="375.52" y="45"/><text fill="#000000" font-family="sans-serif" font-size="14" lengthAdjust="spacing" textLength="129.9334" x="385.52" y="71.2399">&#28369;&#31383; Welch &#29305;&#24449;&#25552;&#21462;</text></g><!--entity base--><g class="entity" data-qualified-name="base" data-source-line="7" id="ent0006"><rect fill="#F1F1F1" height="40.2719" rx="2.5" ry="2.5" style="stroke:#181818;stroke-width:0.5;" width="269.563" x="585.45" y="45"/><text fill="#000000" font-family="sans-serif" font-size="14" lengthAdjust="spacing" textLength="249.563" x="595.45" y="71.2399">&#21333;&#27169;&#24577;&#22522;&#32447;&#27169;&#22411;&#65288;RF / XGBoost / SVM&#65289;</text></g><!--entity fusion--><g class="entity" data-qualified-name="fusion" data-source-line="8" id="ent0007"><rect fill="#F1F1F1" height="40.2719" rx="2.5" ry="2.5" style="stroke:#181818;stroke-width:0.5;" width="117.9996" x="915.01" y="45"/><text fill="#000000" font-family="sans-serif" font-size="14" lengthAdjust="spacing" textLength="97.9996" x="925.01" y="71.2399">&#21452;&#27169;&#24577;&#29305;&#24449;&#34701;&#21512;</text></g><!--entity cls--><g class="entity" data-qualified-name="cls" data-source-line="9" id="ent0008"><rect fill="#F1F1F1" height="40.2719" rx="2.5" ry="2.5" style="stroke:#181818;stroke-width:0.5;" width="103.9996" x="1093.01" y="45"/><text fill="#000000" font-family="sans-serif" font-size="14" lengthAdjust="spacing" textLength="83.9996" x="1103.01" y="71.2399">&#29366;&#24577;&#35782;&#21035;&#36755;&#20986;</text></g><!--entity inc--><g class="entity" data-qualified-name="inc" data-source-line="10" id="ent0009"><rect fill="#F1F1F1" height="40.2719" rx="2.5" ry="2.5" style="stroke:#181818;stroke-width:0.5;" width="264.243" x="1257.01" y="45"/><text fill="#000000" font-family="sans-serif" font-size="14" lengthAdjust="spacing" textLength="244.243" x="1267.01" y="71.2399">&#22686;&#37327;&#26356;&#26032;&#27169;&#22359;&#65288;&#21407;&#22411;&#26356;&#26032; / partial_fit&#65289;</text></g><!--link sensor to feat--><g class="link" data-entity-1="ent0002" data-entity-2="ent0005" data-link-type="dependency" data-source-line="12" id="lnk10"><path d="M287.95,35.33 C313.38,40.02 340.0295,44.9416 369.2495,50.3316" fill="none" id="sensor-to-feat" style="stroke:#181818;stroke-width:1;"/><polygon fill="#181818" points="375.15,51.42,367.0249,45.8537,370.233,50.513,365.5737,53.721,375.15,51.42" style="stroke:#181818;stroke-width:1;"/></g><!--link vision to track--><g class="link" data-entity-1="ent0003" data-entity-2="ent0004" data-link-type="dependency" data-source-line="13" id="lnk11"><path d="M109.54,102.13 C127.98,102.13 143.23,102.13 163.22,102.13" fill="none" id="vision-to-track" style="stroke:#181818;stroke-width:1;"/><polygon fill="#181818" points="169.22,102.13,160.22,98.13,164.22,102.13,160.22,106.13,169.22,102.13" style="stroke:#181818;stroke-width:1;"/></g><!--link track to feat--><g class="link" data-entity-1="ent0004" data-entity-2="ent0005" data-link-type="dependency" data-source-line="14" id="lnk12"><path d="M315.84,89.14 C335.08,85.68 349.9948,83.0126 369.3348,79.5326" fill="none" id="track-to-feat" style="stroke:#181818;stroke-width:1;"/><polygon fill="#181818" points="375.24,78.47,365.6739,76.1271,370.319,79.3555,367.0906,84.0006,375.24,78.47" style="stroke:#181818;stroke-width:1;"/></g><!--link feat to base--><g class="link" data-entity-1="ent0005" data-entity-2="ent0006" data-link-type="dependency" data-source-line="15" id="lnk13"><path d="M525.71,65.13 C544.2,65.13 558.61,65.13 579.02,65.13" fill="none" id="feat-to-base" style="stroke:#181818;stroke-width:1;"/><polygon fill="#181818" points="585.02,65.13,576.02,61.13,580.02,65.13,576.02,69.13,585.02,65.13" style="stroke:#181818;stroke-width:1;"/></g><!--link base to fusion--><g class="link" data-entity-1="ent0006" data-entity-2="ent0007" data-link-type="dependency" data-source-line="16" id="lnk14"><path d="M855.23,65.13 C876.13,65.13 890.74,65.13 908.73,65.13" fill="none" id="base-to-fusion" style="stroke:#181818;stroke-width:1;"/><polygon fill="#181818" points="914.73,65.13,905.73,61.13,909.73,65.13,905.73,69.13,914.73,65.13" style="stroke:#181818;stroke-width:1;"/></g><!--link fusion to cls--><g class="link" data-entity-1="ent0007" data-entity-2="ent0008" data-link-type="dependency" data-source-line="17" id="lnk15"><path d="M1033.17,65.13 C1052.46,65.13 1067.78,65.13 1086.53,65.13" fill="none" id="fusion-to-cls" style="stroke:#181818;stroke-width:1;"/><polygon fill="#181818" points="1092.53,65.13,1083.53,61.13,1087.53,65.13,1083.53,69.13,1092.53,65.13" style="stroke:#181818;stroke-width:1;"/></g><!--link cls to inc--><g class="link" data-entity-1="ent0008" data-entity-2="ent0009" data-link-type="dependency" data-source-line="18" id="lnk16"><path d="M1197.36,76.09 C1214.99,77.33 1229.6102,77.9887 1250.6502,78.1687" fill="none" id="cls-to-inc" style="stroke:#181818;stroke-width:1;"/><polygon fill="#181818" points="1256.65,78.22,1247.6845,74.1432,1251.6502,78.1772,1247.6161,82.1429,1256.65,78.22" style="stroke:#181818;stroke-width:1;"/></g><!--link inc to cls--><g class="link" data-entity-1="ent0009" data-entity-2="ent0008" data-link-type="dependency" data-source-line="19" id="lnk17"><path d="M1256.65,52.05 C1235.61,52.23 1220.9752,52.519 1203.3452,53.759" fill="none" id="inc-to-cls" style="stroke:#181818;stroke-width:1;"/><polygon fill="#181818" points="1197.36,54.18,1206.6185,57.5387,1202.3477,53.8292,1206.0572,49.5584,1197.36,54.18" style="stroke:#181818;stroke-width:1;"/></g><?plantuml-src NL7DJi904BxtAJRUYMzWeWUD1sE2HhsPjMnXGsbDknYFOWm_QYbeX1WZLIuGFEZ181J4bs6tvSGhkDqDaNgORsTdlftvPbP76W7411PEPmX8OGkf19k6OcUnSGejc0CffC6yJlRHELdNSTh88OC0bGEob8WDZRIEmCfq_CAkFFhOPSq-zTqL06rW8yCsOwomKmmx5OwpTXqaTxS5xGpRKSiOxIwu78PVNZZeJGVLwRSJT4QpaaD7ldX1BAXcbn-mKJteDS4XqjKC22f3EYamjqRTXg1h299bDdKUMFULNHIevmV-3_TfwsO-BYStmIeusjemJPjmR-zWPpwkY0edq4Qn2kwjh21xXIs7rigoL_x_CC5rdnF3zo8jluMJUrgICwYw7QlORirABdlwP8sFID1pamkYLOyhaq4kY7y8mL0_rZ1P2CE6gYXopo2HM9EZoeMAkzoKmBzy1E8cnef0vgHqUOX8f96RyADEt1RnNm00?></g></svg>