<?plantuml 1.2026.2?><svg xmlns="http://www.w3.org/2000/svg" xmlns:xlink="http://www.w3.org/1999/xlink" contentStyleType="text/css" data-diagram-type="DESCRIPTION" height="166px" preserveAspectRatio="none" style="width:1244px;height:166px;background:#FFFFFF;" version="1.1" viewBox="0 0 1244 166" width="1244px" zoomAndPan="magnify"><defs/><g><!--entity machine--><g class="entity" data-qualified-name="machine" data-source-line="3" id="ent0002"><rect fill="#F1F1F1" height="40.2719" rx="2.5" ry="2.5" style="stroke:#181818;stroke-width:0.5;" width="235.4871" x="7" y="45"/><text fill="#000000" font-family="sans-serif" font-size="14" lengthAdjust="spacing" textLength="215.4871" x="17" y="71.2399">&#26426;&#26800;&#23454;&#39564;&#23545;&#35937;&#65288;&#30005;&#26426;/&#40831;&#36718;&#31665;&#27169;&#22411;&#65289;</text></g><!--entity accel--><g class="entity" data-qualified-name="accel" data-source-line="4" id="ent0003"><rect fill="#F1F1F1" height="40.2719" rx="2.5" ry="2.5" style="stroke:#181818;stroke-width:0.5;" width="131.9995" x="302.49" y="8"/><text fill="#000000" font-family="sans-serif" font-size="14" lengthAdjust="spacing" textLength="111.9995" x="312.49" y="34.2399">&#19977;&#36724;&#21152;&#36895;&#24230;&#20256;&#24863;&#22120;</text></g><!--entity camera--><g class="entity" data-qualified-name="camera" data-source-line="5" id="ent0004"><rect fill="#F1F1F1" height="40.2719" rx="2.5" ry="2.5" style="stroke:#181818;stroke-width:0.5;" width="75.9998" x="556.79" y="82"/><text fill="#000000" font-family="sans-serif" font-size="14" lengthAdjust="spacing" textLength="55.9998" x="566.79" y="108.2399">&#20840;&#23616;&#30456;&#26426;</text></g><!--entity stm--><g class="entity" data-qualified-name="stm" data-source-line="6" id="ent0005"><rect fill="#F1F1F1" height="40.2719" rx="2.5" ry="2.5" style="stroke:#181818;stroke-width:0.5;" width="200.6132" x="494.49" y="7"/><text fill="#000000" font-family="sans-serif" font-size="14" lengthAdjust="spacing" textLength="180.6132" x="504.49" y="33.2399">STM32&#65288;&#37319;&#38598;/&#25511;&#21046;/&#39044;&#22788;&#29702;&#65289;</text></g><!--entity host--><g class="entity" data-qualified-name="host" data-source-line="7" id="ent0006"><rect fill="#F1F1F1" height="40.2719" rx="2.5" ry="2.5" style="stroke:#181818;stroke-width:0.5;" width="263.4869" x="755.1" y="45"/><text fill="#000000" font-family="sans-serif" font-size="14" lengthAdjust="spacing" textLength="243.4869" x="765.1" y="71.2399">&#39321;&#27225;&#27966;/&#19978;&#20301;&#26426;&#65288;&#25968;&#25454;&#31649;&#29702;&#19982;&#31639;&#27861;&#22788;&#29702;&#65289;</text></g><!--entity data--><g class="entity" data-qualified-name="data" data-source-line="8" id="ent0007"><rect fill="#F1F1F1" height="40.2719" rx="2.5" ry="2.5" style="stroke:#181818;stroke-width:0.5;" width="131.9995" x="1092.59" y="45"/><text fill="#000000" font-family="sans-serif" font-size="14" lengthAdjust="spacing" textLength="111.9995" x="1102.59" y="71.2399">&#26679;&#26412;&#24211;&#19982;&#26631;&#31614;&#31649;&#29702;</text></g><!--entity app--><g class="entity" data-qualified-name="app" data-source-line="9" id="ent0008"><rect fill="#F1F1F1" height="40.2719" rx="2.5" ry="2.5" style="stroke:#181818;stroke-width:0.5;" width="159.9994" x="1078.59" y="120"/><text fill="#000000" font-family="sans-serif" font-size="14" lengthAdjust="spacing" textLength="139.9994" x="1088.59" y="146.2399">&#21069;&#21518;&#31471;&#23637;&#31034;&#19982;&#31572;&#36777;&#28436;&#31034;</text></g><!--link machine to accel--><g class="link" data-entity-1="ent0002" data-entity-2="ent0003" data-link-type="dependency" data-source-line="11" id="lnk9"><path d="M242.72,47.23 C263.21,44.09 277.9195,41.8507 296.3495,39.0207" fill="none" id="machine-to-accel" style="stroke:#181818;stroke-width:1;"/><polygon fill="#181818" points="302.28,38.11,292.7772,35.5223,297.3379,38.8689,293.9914,43.4296,302.28,38.11" style="stroke:#181818;stroke-width:1;"/></g><!--link machine to camera--><g class="link" data-entity-1="ent0002" data-entity-2="ent0004" data-link-type="dependency" data-source-line="12" id="lnk10"><path d="M242.95,74.4 C345.84,82.53 483.2787,93.3968 550.3987,98.7068" fill="none" id="machine-to-camera" style="stroke:#181818;stroke-width:1;"/><polygon fill="#181818" points="556.38,99.18,547.7235,94.4827,551.3956,98.7857,547.0926,102.4578,556.38,99.18" style="stroke:#181818;stroke-width:1;"/></g><!--link accel to stm--><g class="link" data-entity-1="ent0003" data-entity-2="ent0005" data-link-type="dependency" data-source-line="13" id="lnk11"><path d="M434.97,27.84 C453.46,27.76 468.0101,27.697 488.0301,27.607" fill="none" id="accel-to-stm" style="stroke:#181818;stroke-width:1;"/><polygon fill="#181818" points="494.03,27.58,485.0121,23.6205,489.0301,27.6025,485.0481,31.6204,494.03,27.58" style="stroke:#181818;stroke-width:1;"/></g><!--link camera to host--><g class="link" data-entity-1="ent0004" data-entity-2="ent0006" data-link-type="dependency" data-source-line="14" id="lnk12"><path d="M633.12,97.37 C664.18,93.41 704.3882,88.2787 748.7882,82.6187" fill="none" id="camera-to-host" style="stroke:#181818;stroke-width:1;"/><polygon fill="#181818" points="754.74,81.86,745.3064,79.0302,749.7801,82.4923,746.3181,86.966,754.74,81.86" style="stroke:#181818;stroke-width:1;"/></g><!--link stm to host--><g class="link" data-entity-1="ent0005" data-entity-2="ent0006" data-link-type="dependency" data-source-line="15" id="lnk13"><path d="M695.21,40.16 C714.39,42.67 728.8208,44.561 748.8308,47.181" fill="none" id="stm-to-host" style="stroke:#181818;stroke-width:1;"/><polygon fill="#181818" points="754.78,47.96,746.3755,42.8254,749.8223,47.3109,745.3369,50.7577,754.78,47.96" style="stroke:#181818;stroke-width:1;"/></g><!--link host to data--><g class="link" data-entity-1="ent0006" data-entity-2="ent0007" data-link-type="dependency" data-source-line="16" id="lnk14"><path d="M1018.76,78.25 C1044.27,78.32 1063.9686,78.0807 1086.1986,76.8907" fill="none" id="host-to-data" style="stroke:#181818;stroke-width:1;"/><polygon fill="#181818" points="1092.19,76.57,1082.989,73.0568,1087.1971,76.8373,1083.4167,81.0454,1092.19,76.57" style="stroke:#181818;stroke-width:1;"/></g><!--link data to host--><g class="link" data-entity-1="ent0007" data-entity-2="ent0006" data-link-type="dependency" data-source-line="17" id="lnk15"><path d="M1092.19,53.7 C1069.96,52.51 1050.27,51.9359 1024.76,51.9959" fill="none" id="data-to-host" style="stroke:#181818;stroke-width:1;"/><polygon fill="#181818" points="1018.76,52.01,1027.7694,55.9888,1023.76,51.9982,1027.7506,47.9888,1018.76,52.01" style="stroke:#181818;stroke-width:1;"/></g><!--link host to app--><g class="link" data-entity-1="ent0006" data-entity-2="ent0008" data-link-type="dependency" data-source-line="18" id="lnk16"><path d="M961.91,85.73 C999.81,96.27 1040.0292,107.453 1077.9092,117.983" fill="none" id="host-to-app" style="stroke:#181818;stroke-width:1;"/><polygon fill="#181818" points="1083.69,119.59,1076.0901,113.3257,1078.8727,118.2509,1073.9475,121.0334,1083.69,119.59" style="stroke:#181818;stroke-width:1;"/></g><?plantuml-src RL3BJi905Dtp5HFsf8dkJVm0L_83ap90Orj8EoOkMI0lXP08CGG2XH04bG8H5Hl0d-dCj2j-mUc0iIHkRdBEFVVUSu-AaXZW332KL1g3X68W6IiPFM9UANeM6b032PI4rogEenjyhYefNKCw1Z8lo8W4QgYdL0IYjEFGmPpONV_vdio-l4L_jownnZld9N_pxMriPY_ek4-wTxjrEGgW2JGefnKTXRUugxAtMPAAvUTwn1cvQulcUwGr5deeoqWDgydjc2nohBtYHuH2XXeoO5Xo6RyuFU5E_6BHRnSaMdiYfG_97-J9CC_gXLyh9jR2K_weHISjkjnAxghYRgfyFzz1ctDQvM_q-Q2xgZ7xaRurZ_UaCoO-IiNwf9rNuZnmFRMARBhTZmjn0k8ZhwHS9VKQUvcHHPCDdU34jE5j9tJTu70VGJORYHno0x7OsI6JC7F8G3G44Vos9mKK5Zdt1u8Ya30Kb7zw_F8F?></g></svg>