<?plantuml 1.2026.2?><svg xmlns="http://www.w3.org/2000/svg" xmlns:xlink="http://www.w3.org/1999/xlink" contentStyleType="text/css" data-diagram-type="DESCRIPTION" height="184px" preserveAspectRatio="none" style="width:1436px;height:184px;background:#FFFFFF;" version="1.1" viewBox="0 0 1436 184" width="1436px" zoomAndPan="magnify"><defs/><g><!--entity machine--><g class="entity" data-qualified-name="machine" data-source-line="3" id="ent0002"><polygon fill="#F1F1F1" points="16,75,26,65,111.9998,65,111.9998,105.2719,101.9998,115.2719,16,115.2719,16,75" style="stroke:#181818;stroke-width:0.5;"/><line style="stroke:#181818;stroke-width:0.5;" x1="101.9998" x2="111.9998" y1="75" y2="65"/><line style="stroke:#181818;stroke-width:0.5;" x1="16" x2="101.9998" y1="75" y2="75"/><line style="stroke:#181818;stroke-width:0.5;" x1="101.9998" x2="101.9998" y1="75" y2="115.2719"/><text fill="#000000" font-family="sans-serif" font-size="14" lengthAdjust="spacing" textLength="55.9998" x="31" y="101.2399">&#26426;&#26800;&#23545;&#35937;</text></g><!--entity accel--><g class="entity" data-qualified-name="accel" data-source-line="4" id="ent0003"><polygon fill="#F1F1F1" points="173,17,183,7,410.0772,7,410.0772,47.2719,400.0772,57.2719,173,57.2719,173,17" style="stroke:#181818;stroke-width:0.5;"/><line style="stroke:#181818;stroke-width:0.5;" x1="400.0772" x2="410.0772" y1="17" y2="7"/><line style="stroke:#181818;stroke-width:0.5;" x1="173" x2="400.0772" y1="17" y2="17"/><line style="stroke:#181818;stroke-width:0.5;" x1="400.0772" x2="400.0772" y1="17" y2="57.2719"/><text fill="#000000" font-family="sans-serif" font-size="14" lengthAdjust="spacing" textLength="197.0772" x="188" y="43.2399">ADXL345&#65288;&#19977;&#36724;&#21152;&#36895;&#24230;&#20256;&#24863;&#22120;&#65289;</text></g><!--entity camera--><g class="entity" data-qualified-name="camera" data-source-line="5" id="ent0004"><polygon fill="#F1F1F1" points="440.08,96,450.08,86,536.0798,86,536.0798,126.2719,526.0798,136.2719,440.08,136.2719,440.08,96" style="stroke:#181818;stroke-width:0.5;"/><line style="stroke:#181818;stroke-width:0.5;" x1="526.0798" x2="536.0798" y1="96" y2="86"/><line style="stroke:#181818;stroke-width:0.5;" x1="440.08" x2="526.0798" y1="96" y2="96"/><line style="stroke:#181818;stroke-width:0.5;" x1="526.0798" x2="526.0798" y1="96" y2="136.2719"/><text fill="#000000" font-family="sans-serif" font-size="14" lengthAdjust="spacing" textLength="55.9998" x="455.08" y="122.2399">&#20840;&#23616;&#30456;&#26426;</text></g><!--entity stm--><g class="entity" data-qualified-name="stm" data-source-line="6" id="ent0005"><polygon fill="#F1F1F1" points="566.08,16,576.08,6,739.2054,6,739.2054,46.2719,729.2054,56.2719,566.08,56.2719,566.08,16" style="stroke:#181818;stroke-width:0.5;"/><line style="stroke:#181818;stroke-width:0.5;" x1="729.2054" x2="739.2054" y1="16" y2="6"/><line style="stroke:#181818;stroke-width:0.5;" x1="566.08" x2="729.2054" y1="16" y2="16"/><line style="stroke:#181818;stroke-width:0.5;" x1="729.2054" x2="729.2054" y1="16" y2="56.2719"/><text fill="#000000" font-family="sans-serif" font-size="14" lengthAdjust="spacing" textLength="133.1254" x="581.08" y="42.2399">STM32&#65288;&#37319;&#26679;/&#25511;&#21046;&#65289;</text></g><!--entity db--><g class="entity" data-qualified-name="db" data-source-line="7" id="ent0006"><path d="M1287.69,25.5 C1287.69,15.5 1353.6898,15.5 1353.6898,15.5 C1353.6898,15.5 1419.6895,15.5 1419.6895,25.5 L1419.6895,54.7719 C1419.6895,64.7719 1353.6898,64.7719 1353.6898,64.7719 C1353.6898,64.7719 1287.69,64.7719 1287.69,54.7719 L1287.69,25.5" fill="#F1F1F1" style="stroke:#181818;stroke-width:0.5;"/><path d="M1287.69,25.5 C1287.69,35.5 1353.6898,35.5 1353.6898,35.5 C1353.6898,35.5 1419.6895,35.5 1419.6895,25.5" fill="none" style="stroke:#181818;stroke-width:0.5;"/><text fill="#000000" font-family="sans-serif" font-size="14" lengthAdjust="spacing" textLength="111.9995" x="1297.69" y="55.7399">&#23454;&#39564;&#25968;&#25454;&#19982;&#26631;&#31614;&#24211;</text></g><!--entity host--><g class="entity" data-qualified-name="host" data-source-line="8" id="ent0007"><polygon fill="#F1F1F1" points="884.2,67,894.2,57,1111.6872,57,1111.6872,97.2719,1101.6872,107.2719,884.2,107.2719,884.2,67" style="stroke:#181818;stroke-width:0.5;"/><line style="stroke:#181818;stroke-width:0.5;" x1="1101.6872" x2="1111.6872" y1="67" y2="57"/><line style="stroke:#181818;stroke-width:0.5;" x1="884.2" x2="1101.6872" y1="67" y2="67"/><line style="stroke:#181818;stroke-width:0.5;" x1="1101.6872" x2="1101.6872" y1="67" y2="107.2719"/><text fill="#000000" font-family="sans-serif" font-size="14" lengthAdjust="spacing" textLength="187.4872" x="899.2" y="93.2399">&#39321;&#27225;&#27966;/&#19978;&#20301;&#26426;&#65288;&#20998;&#26512;&#19982;&#35757;&#32451;&#65289;</text></g><!--entity ui--><g class="entity" data-qualified-name="ui" data-source-line="9" id="ent0008"><polygon fill="#F1F1F1" points="1298.69,127,1308.69,117,1408.6897,117,1408.6897,157.2719,1398.6897,167.2719,1298.69,167.2719,1298.69,127" style="stroke:#181818;stroke-width:0.5;"/><line style="stroke:#181818;stroke-width:0.5;" x1="1398.6897" x2="1408.6897" y1="127" y2="117"/><line style="stroke:#181818;stroke-width:0.5;" x1="1298.69" x2="1398.6897" y1="127" y2="127"/><line style="stroke:#181818;stroke-width:0.5;" x1="1398.6897" x2="1398.6897" y1="127" y2="167.2719"/><text fill="#000000" font-family="sans-serif" font-size="14" lengthAdjust="spacing" textLength="69.9997" x="1313.69" y="153.2399">&#21487;&#35270;&#21270;&#30028;&#38754;</text></g><!--link machine to accel--><g class="link" data-entity-1="ent0002" data-entity-2="ent0003" data-link-type="dependency" data-source-line="11" id="lnk9"><path d="M112.28,77.98 C135.27,72.06 158.0089,66.2135 185.4789,59.1535" fill="none" id="machine-to-accel" style="stroke:#181818;stroke-width:1;"/><polygon fill="#181818" points="191.29,57.66,181.5776,56.0262,186.4474,58.9046,183.569,63.7744,191.29,57.66" style="stroke:#181818;stroke-width:1;"/></g><!--link machine to camera--><g class="link" data-entity-1="ent0002" data-entity-2="ent0004" data-link-type="dependency" data-source-line="12" id="lnk10"><path d="M112.19,92.48 C193.4,96.52 352.6574,104.4412 433.8774,108.4912" fill="none" id="machine-to-camera" style="stroke:#181818;stroke-width:1;"/><polygon fill="#181818" points="439.87,108.79,431.0804,104.3467,434.8762,108.541,430.682,112.3368,439.87,108.79" style="stroke:#181818;stroke-width:1;"/></g><!--link accel to stm--><g class="link" data-entity-1="ent0003" data-entity-2="ent0005" data-link-type="dependency" data-source-line="13" id="lnk11"><path d="M410.12,31.81 C460.85,31.67 513.1,31.5167 559.68,31.3867" fill="none" id="accel-to-stm" style="stroke:#181818;stroke-width:1;"/><polygon fill="#181818" points="565.68,31.37,556.6689,27.3951,560.68,31.384,556.6912,35.3951,565.68,31.37" style="stroke:#181818;stroke-width:1;"/><text fill="#000000" font-family="sans-serif" font-size="13" lengthAdjust="spacing" textLength="52.0001" x="462.08" y="27.54">&#25391;&#21160;&#37319;&#26679;</text></g><!--link stm to host--><g class="link" data-entity-1="ent0005" data-entity-2="ent0007" data-link-type="dependency" data-source-line="14" id="lnk12"><path d="M739.38,43.87 C783.08,50.36 830.8452,57.4579 877.8752,64.4479" fill="none" id="stm-to-host" style="stroke:#181818;stroke-width:1;"/><polygon fill="#181818" points="883.81,65.33,875.4958,60.0503,878.8643,64.5949,874.3197,67.9634,883.81,65.33" style="stroke:#181818;stroke-width:1;"/><text fill="#000000" font-family="sans-serif" font-size="13" lengthAdjust="spacing" textLength="83.0961" x="770.2" y="45.17">&#20018;&#21475;/&#24635;&#32447;&#25968;&#25454;</text></g><!--link camera to host--><g class="link" data-entity-1="ent0004" data-entity-2="ent0007" data-link-type="dependency" data-source-line="15" id="lnk13"><path d="M536.4,108.43 C615.08,103.94 768.9097,95.1516 877.9697,88.9316" fill="none" id="camera-to-host" style="stroke:#181818;stroke-width:1;"/><polygon fill="#181818" points="883.96,88.59,874.7468,85.109,878.9681,88.8747,875.2024,93.096,883.96,88.59" style="stroke:#181818;stroke-width:1;"/><text fill="#000000" font-family="sans-serif" font-size="13" lengthAdjust="spacing" textLength="39" x="633.14" y="93.34">&#35270;&#39057;&#27969;</text></g><!--link host to db--><g class="link" data-entity-1="ent0007" data-entity-2="ent0006" data-link-type="dependency" data-source-line="16" id="lnk14"><path d="M1111.86,65.02 C1121.94,63.65 1131.99,62.33 1141.69,61.13 C1190.47,55.12 1239.7752,50.2197 1281.5152,46.3797" fill="none" id="host-to-db" style="stroke:#181818;stroke-width:1;"/><polygon fill="#181818" points="1287.49,45.83,1278.1614,42.6713,1282.511,46.2881,1278.8943,50.6377,1287.49,45.83" style="stroke:#181818;stroke-width:1;"/><text fill="#000000" font-family="sans-serif" font-size="13" lengthAdjust="spacing" textLength="83.0961" x="1158.19" y="44.84">&#23384;&#20648;&#26679;&#26412;/&#32467;&#26524;</text></g><!--link db to host--><g class="link" data-entity-1="ent0006" data-entity-2="ent0007" data-link-type="dependency" data-source-line="17" id="lnk15"><path d="M1314.59,65.07 C1297.86,74.6 1277.53,84.32 1257.69,89.13 C1210.85,100.5 1163.836,101.5292 1118.046,98.3992" fill="none" id="db-to-host" style="stroke:#181818;stroke-width:1;"/><polygon fill="#181818" points="1112.06,97.99,1120.7663,102.5945,1117.0484,98.331,1121.3118,94.6131,1112.06,97.99" style="stroke:#181818;stroke-width:1;"/><text fill="#000000" font-family="sans-serif" font-size="13" lengthAdjust="spacing" textLength="57.0961" x="1171.19" y="85.21">&#26597;&#35810;/&#35757;&#32451;</text></g><!--link host to ui--><g class="link" data-entity-1="ent0007" data-entity-2="ent0008" data-link-type="dependency" data-source-line="18" id="lnk16"><path d="M1068.53,107.66 C1091.53,115.13 1117.44,122.52 1141.69,127.13 C1194.36,137.16 1249.5821,140.472 1292.4721,141.602" fill="none" id="host-to-ui" style="stroke:#181818;stroke-width:1;"/><polygon fill="#181818" points="1298.47,141.76,1289.5785,137.5244,1293.4717,141.6283,1289.3678,145.5216,1298.47,141.76" style="stroke:#181818;stroke-width:1;"/><text fill="#000000" font-family="sans-serif" font-size="13" lengthAdjust="spacing" textLength="114.1921" x="1142.69" y="123.21">&#29366;&#24577;&#32467;&#26524;/&#39057;&#35889;/&#26085;&#24535;</text></g><?plantuml-src JP1BJy9058NtyoicxaaJ7niN9YOkTQKBjqCxIYCjfXqIb_W42RvYV10H48EWaPVnKG7rptHksvL_mUc3o6OMvxldt7icITSOPYbigEi9XXNLe39JKpeoDrHzanX4mmfT8-aaMw5RR3wfhkiQrHcMnKCDfASKYYUWr8TQbtS-tTxT12OcreYSK7KQuVc5rSMfwPdVOSws3jslLvwlUfaAxp_OmohiLNYn-Jiy37n4bcaoSl7z9kzbd1jBf0TG9XerI4INLvQc9aMYbyr2zKE2umRFlOzYJAOXXJ0I9wOVr2vxJmMuwC9HsxQEePfrMj-yVnwCAl4eq7iemcCHNhybsyhRNqTYguZdkGCedmgNssuvWztHWaJAPACpJpfkuu0NBfsBWdTR2t1QHIZw0XoBpKMrnfMeIm02GPoCPp4KEZpV33iXN_AHlqmmsthX9_SIP0PE_oTiWyAOyIbnYrSxWxTj50W-KU92vwrhljCKiL1wbfp1EPHBI80n9rJgRgScXKN_tMbLC2V_3fdjq2Q9VBVRa-2gpd-k_W00?></g></svg>